<?xml version="1.0" encoding="UTF-8" standalone="no"?>
<!-- Created with Inkscape (http://www.inkscape.org/) -->

<svg
   xmlns:dc="http://purl.org/dc/elements/1.1/"
   xmlns:cc="http://creativecommons.org/ns#"
   xmlns:rdf="http://www.w3.org/1999/02/22-rdf-syntax-ns#"
   xmlns:svg="http://www.w3.org/2000/svg"
   xmlns="http://www.w3.org/2000/svg"
   xmlns:sodipodi="http://sodipodi.sourceforge.net/DTD/sodipodi-0.dtd"
   xmlns:inkscape="http://www.inkscape.org/namespaces/inkscape"
   width="400"
   height="300"
   viewBox="0 0 400 300"
   id="svg4136"
   version="1.1"
   inkscape:version="0.91 r13725"
   sodipodi:docname="road_2.svg"
   class="fullScreen">
  <defs
     id="defs4138" />
  <sodipodi:namedview
     id="base"
     pagecolor="#ffffff"
     bordercolor="#666666"
     borderopacity="1.0"
     inkscape:pageopacity="0.0"
     inkscape:pageshadow="2"
     inkscape:zoom="2.8"
     inkscape:cx="221.84079"
     inkscape:cy="121.96415"
     inkscape:document-units="px"
     inkscape:current-layer="gameLayer"
     showgrid="true"
     units="px"
     inkscape:window-width="2560"
     inkscape:window-height="1377"
     inkscape:window-x="-8"
     inkscape:window-y="-8"
     inkscape:window-maximized="1">
    <inkscape:grid
       type="xygrid"
       id="grid4684" />
  </sodipodi:namedview>
  <metadata
     id="metadata4141">
    <rdf:RDF>
      <cc:Work
         rdf:about="">
        <dc:format>image/svg+xml</dc:format>
        <dc:type
           rdf:resource="http://purl.org/dc/dcmitype/StillImage" />
        <dc:title></dc:title>
      </cc:Work>
    </rdf:RDF>
  </metadata>
  <g
     inkscape:label="Layer 1"
     inkscape:groupmode="layer"
     id="gameLayer">
    <path
       style="fill:none;fill-rule:evenodd;stroke:#000000;stroke-width:10;stroke-linecap:round;stroke-linejoin:miter;stroke-miterlimit:4;stroke-dasharray:none;stroke-opacity:1"
       d="m 60.357143,168.21429 c 0,0 -31.990829,-94.946917 -23.928571,-111.071433 8.571428,-17.142857 14.642857,-33.214286 45,-30 11.118187,1.17722 48.928568,36.071429 48.928568,56.071429 0,20.000004 1.42857,117.500004 -3.57143,127.500004 -5,10 -36.78571,49.28571 -21.42857,57.5 9.85865,5.27324 74.64286,26.78571 90,5 13.465,-19.10151 30,-85 15,-100 -15,-15 -70,-40 -60,-80.000004 10,-40 10.02026,-70.899988 30,-70 39.64286,1.785714 54.64437,50.123264 60,65 C 250,115 225,220 240.35714,243.21429 c 7.80272,11.79481 35,40 65,25 30,-15 65,-75 70,-90 5,-15 0,-105.000004 -5,-120.000004 -5,-15 -25,-50.0000003 -50,-40 -25,10 -50.35714,46.785714 -52.14286,59.642857 -1.53806,11.07404 32.14286,115.357147 32.14286,115.357147"
       id="road"
       inkscape:connector-curvature="0"
       sodipodi:nodetypes="cssssssssssssssssc" />
    <g
       id="canon"
       transform="translate(194.28572,119.35714)">
      <circle
         style="opacity:1;fill:#5ef8e8;fill-opacity:1;stroke:none;stroke-width:10;stroke-linecap:round;stroke-linejoin:round;stroke-miterlimit:4;stroke-dasharray:none;stroke-opacity:1"
         id="ellipse10"
         cx="0"
         cy="0"
         r="15" />
    </g>
    <g
       id="ballsLayer" />
    <ellipse
       style="opacity:1;fill:#bff85e;fill-opacity:1;stroke:none;stroke-width:10;stroke-linecap:round;stroke-linejoin:round;stroke-miterlimit:4;stroke-dasharray:none;stroke-opacity:1"
       id="path4692"
       cx="60.178577"
       cy="180.04079"
       rx="26.25"
       ry="23.035715" />
    <ellipse
       style="opacity:1;fill:#220d01;fill-opacity:1;stroke:none;stroke-width:10;stroke-linecap:round;stroke-linejoin:round;stroke-miterlimit:4;stroke-dasharray:none;stroke-opacity:1"
       id="path4694"
       cx="308.21426"
       cy="214.14787"
       rx="26.071428"
       ry="23.571428" />
    <g
            id="fireLayer" />
  </g>
</svg>
