<?xml version="1.0" encoding="utf-8"?>
<!-- Generator: Adobe Illustrator 16.0.3, SVG Export Plug-In . SVG Version: 6.00 Build 0)  -->
<!DOCTYPE svg PUBLIC "-//W3C//DTD SVG 1.1//EN" "http://www.w3.org/Graphics/SVG/1.1/DTD/svg11.dtd">
<svg version="1.1" id="Layer_1" xmlns="http://www.w3.org/2000/svg" xmlns:xlink="http://www.w3.org/1999/xlink" x="0px" y="0px"
	 width="256px" height="256px" viewBox="0 0 256 256" enable-background="new 0 0 256 256" xml:space="preserve">
<g>
	<path fill="#DDA466" d="M250.239,120.412c-5.262,0.836-11.985,1.114-16.079-2.507c-2.338-2.229-2.923-5.571-6.14-6.964
		c-2.046-1.114-5.554-1.393-7.893-1.671c-12.571-0.835-23.389,10.864-36.252,6.964c-13.448-4.457-23.388-10.028-37.421-4.457
		c-5.847,2.228-12.279,5.292-18.711,4.735c-8.771-0.836-18.417-5.85-26.604-8.914c-22.219-8.635-47.653-5.85-68.995,3.899
		c-4.386,2.229-14.618,4.735-16.079,10.585c-1.462,6.686,13.74,5.571,18.417,4.178c-2.338,3.621-6.432,6.128-10.524,7.521
		c-5.847,1.949-7.601,1.393-5.262,7.799c0.584,1.95-0.877,3.064,1.754,3.899c0.877,0.279,5.555-1.949,6.432-2.507
		c5.555-1.671,10.233-4.735,15.495-6.406c7.601-2.507,5.555,5.014,11.402,7.521c5.555,2.507,18.125,0.836,23.68-0.835
		c9.063-2.229,18.418-8.357,28.065-7.521c10.817,0.836,20.465,8.636,31.866,9.749c7.31,0.836,10.817-4.178,16.665-6.685
		c4.385-1.672,11.401-2.507,15.786-1.95c10.233,1.393,11.986,9.471,23.097,4.735c11.109-5.014,22.511-3.899,33.62-7.799
		c8.478-2.786,16.371-9.75,25.143-11.143"/>
	<g>
		<path fill="#CACAEA" d="M249.831,118.93c-3.523,0.513-6.94,0.684-10.443-0.062c-3.751-0.799-5.082-3.668-7.25-6.39
			c-3.034-3.809-7.453-4.226-12.01-4.746c-12.133-1.385-22.12,9.584-34.423,7.389c-6.502-1.16-12.691-4.598-19.14-6.188
			c-6.271-1.547-12.572-1.195-18.711,0.697c-7.798,2.404-14.338,6.395-22.83,4.941c-7.131-1.22-13.887-4.585-20.53-7.303
			c-13.058-5.341-26.738-7.191-40.77-5.931c-13.084,1.174-24.649,5.846-36.683,10.666c-3.802,1.523-17.162,7.524-11.596,13.807
			c4.198,4.738,14.048,3.396,19.446,1.933c-0.579-0.752-1.157-1.505-1.735-2.257c-3.944,5.461-9.331,5.596-14.672,8.531
			c-2.744,1.508-2.494,4.003-1.708,6.703c0.782,2.689,0.174,6.33,4.167,6.293c1.521-0.015,3.162-0.995,4.526-1.601
			c2.821-1.251,5.708-2.34,8.527-3.607c3.31-1.488,6.518-3.133,10.034-4.097c2.805-0.77,3.743,2.212,4.865,4.025
			c1.965,3.176,5.351,4.55,8.947,4.928c11.321,1.188,21.88-2.242,32.283-6.255c7.048-2.719,13.624-4.018,21.065-2.052
			c6.697,1.769,12.833,5.283,19.448,7.338c4.497,1.396,9.765,2.221,14.186,0.153c2.302-1.077,4.374-2.483,6.511-3.849
			c3.482-2.224,7.339-3.068,11.392-3.563c6.099-0.745,10.996,0.68,16.229,3.679c3.735,2.141,7.21,2.885,11.457,1.972
			c3.413-0.733,6.609-2.531,9.984-3.477c3.474-0.974,7.089-1.463,10.649-1.993c7.165-1.065,14.096-2.292,20.729-5.316
			c6.841-3.119,12.813-7.703,20.334-9.176c1.944-0.381,1.119-3.343-0.816-2.964c-6.068,1.189-11.332,4.257-16.688,7.215
			c-6.625,3.658-13.386,5.579-20.824,6.753c-6.686,1.056-13.564,1.725-19.862,4.386c-3.413,1.442-6.513,2.553-10.182,1.499
			c-2.473-0.711-4.731-2.469-7.012-3.623c-9.175-4.646-20.897-2.006-29.096,3.346c-6.434,4.2-12.205,3.413-19.242,0.992
			c-6.541-2.251-12.587-5.581-19.394-7.06c-11.824-2.567-22.731,4.808-33.807,7.603c-5.226,1.318-10.774,1.783-16.146,1.444
			c-2.967-0.187-5.712-1.015-7.493-3.531c-1.006-1.422-1.66-2.987-2.871-4.27c-2.586-2.738-7.02-0.781-9.808,0.321
			c-5.625,2.223-11.041,4.973-16.638,7.242c-2.477,1.003-1.883-1.813-2.491-3.572c-1.082-3.133,0.873-3.47,3.437-4.257
			c5.108-1.567,9.484-4.251,12.633-8.61c0.824-1.14-0.527-2.584-1.735-2.257c-3.112,0.844-6.351,1.043-9.562,0.981
			c-1.886-0.037-3.837-0.291-5.577-1.058c-3.857-1.701,1.005-5.657,2.73-6.781c3.456-2.252,7.555-3.327,11.254-5.097
			c6.103-2.92,12.674-4.94,19.241-6.504c13.223-3.148,27.122-3.146,40.311,0.102c11.497,2.831,21.865,9.993,33.715,11.437
			c6.18,0.753,11.737-1.105,17.432-3.329c6.887-2.689,13.183-4.234,20.584-2.96c10.77,1.854,19.842,8.657,31.074,6.235
			c10.69-2.305,20.601-10.468,31.967-5.537c4.407,1.912,4.877,7.568,10.006,9.155c4.421,1.368,8.867,1.129,13.396,0.47
			C252.604,121.609,251.769,118.648,249.831,118.93L249.831,118.93z"/>
	</g>
</g>
<g>
	<g>
		<path fill="#CACAEA" d="M52.139,114.895c1.921,0.53,3.88,0.833,5.85,1.114c-0.221-0.835-0.441-1.671-0.662-2.507
			c-0.977,1.058-2.653,0.835-3.729,0c-1.507-1.172-3.647,0.935-2.121,2.121c2.315,1.801,5.794,2.359,7.971,0
			c0.681-0.737,0.528-2.337-0.662-2.507c-1.97-0.282-3.929-0.584-5.85-1.114C51.068,111.487,50.276,114.381,52.139,114.895
			L52.139,114.895z"/>
	</g>
</g>
</svg>
