<?xml version="1.0" encoding="utf-8"?>
<!-- Generator: Adobe Illustrator 16.0.3, SVG Export Plug-In . SVG Version: 6.00 Build 0)  -->
<!DOCTYPE svg PUBLIC "-//W3C//DTD SVG 1.1//EN" "http://www.w3.org/Graphics/SVG/1.1/DTD/svg11.dtd">
<svg version="1.1" id="Layer_1" xmlns="http://www.w3.org/2000/svg" xmlns:xlink="http://www.w3.org/1999/xlink" x="0px" y="0px"
	 width="256px" height="256px" viewBox="0 0 256 256" enable-background="new 0 0 256 256" xml:space="preserve">
<g>
	<g>
		<path fill="#FFFFFF" d="M166.79,2.615c-7.993-1.067-16.68-0.356-24.673,1.067c-14.594,2.489-30.231,4.623-44.13,10.314
			C86.867,18.62,76.442,26.089,68.103,34.98c-8.34,8.892-12.509,19.562-18.417,30.231c-10.425,19.206-22.935,36.989-33.359,56.55
			c-7.297,14.583-14.595,33.077-12.163,49.793c2.781,17.784,18.07,38.057,31.274,49.438c7.297,6.046,15.29,14.581,23.282,18.85
			c7.645,4.267,17.375,6.758,25.715,10.313c4.865,2.49,9.034,2.846,14.594,2.846c7.993,0,11.468-3.913,18.417-6.758
			c12.163-5.335,30.928-1.422,44.132-1.422c18.417-0.356,37.183-16.36,50.387-28.811c5.559-5.688,9.729-12.804,14.941-18.494
			c5.561-6.402,11.119-12.448,15.29-19.917c6.95-12.447,9.383-29.876,9.729-44.102c0.348-25.607-14.247-56.551-27.104-77.891
			c-5.908-9.959-13.204-24.541-22.238-32.01c-3.476-3.202-8.339-3.912-12.162-6.402c-3.822-2.845-6.95-6.401-10.772-9.247
			c-3.822-2.49-7.645-4.623-11.813-6.402c-0.349,0-0.695,0-0.695-0.355"/>
		<g>
			<path fill="#CACAEA" d="M166.79,0.722c-14.386-1.686-28.921,1.583-43.012,4.201c-14.151,2.63-27.737,6.664-39.95,14.444
				c-11.27,7.18-20.472,16.791-27.076,28.377c-7.411,13.004-14.098,26.301-21.945,39.08c-14.711,23.956-33.493,50.267-32.984,79.668
				c0.437,25.227,21.158,45.64,38.504,61.31c4.735,4.277,9.455,8.556,14.774,12.104c5.757,3.84,12.577,6.076,19.045,8.375
				c11.011,3.912,22.512,10.028,34.254,4.591c5.396-2.498,10.208-5.541,16.124-6.76c6.781-1.397,14.037-0.792,20.885-0.326
				c5.867,0.398,11.774,1.114,17.662,0.866c6.035-0.254,11.849-2.347,17.289-4.825c11.988-5.46,22.309-14.566,31.859-23.46
				c4.944-4.604,8.665-10.381,12.793-15.685c4.43-5.69,9.504-10.842,13.881-16.588c15.101-19.827,17.676-49.353,12.575-73.072
				c-5.331-24.796-18.325-46.844-30.873-68.535c-5.483-9.479-11.918-20.942-22.303-25.692c-3.396-1.553-6.396-2.73-9.294-5.184
				c-2.712-2.298-5.208-4.808-8.014-7.002c-2.307-1.803-5.058-3.178-7.635-4.547c-1.485-0.79-3.024-1.472-4.563-2.151
				c-1.284-0.567-0.575-0.478-0.016,0.324c-1.386-1.987-4.67-0.097-3.27,1.911c0.801,1.147,1.682,1.17,2.923,1.718
				c3.067,1.355,5.978,3.048,8.831,4.802c6.058,3.722,10.024,9.643,16.739,12.41c13.063,5.382,19.689,18.919,26.362,30.605
				c13.455,23.563,27.284,48.187,29.495,75.82c1.055,13.183-1.078,27.317-5.206,39.827c-4.711,14.276-15.827,24.104-24.673,35.746
				c-8.926,11.747-19.218,21.531-31.505,29.786c-5.69,3.822-11.836,6.92-18.434,8.811c-6.543,1.875-13.3,1.17-19.978,0.673
				c-11.861-0.883-23.835-1.957-35.007,2.89c-6.165,2.674-10.604,5.917-17.651,5.863c-7.482-0.058-13.691-3.396-20.582-5.874
				c-6.806-2.448-13.618-4.766-19.806-8.586c-6.546-4.042-12.041-9.815-17.778-14.884c-10.042-8.872-18.747-18.521-25.506-30.177
				c-7.715-13.305-9.68-26.809-6.211-41.788c3.477-15.012,11.043-28.724,18.829-41.863c7.951-13.419,16.503-26.472,24.076-40.116
				c7.177-12.929,12.778-25.895,23.767-36.191c12.266-11.493,27.214-17.877,43.421-21.577c15.72-3.588,33.035-7.426,49.181-5.534
				C169.212,4.792,169.185,1.003,166.79,0.722L166.79,0.722z"/>
		</g>
	</g>
	<g>
		<path fill="#FFFFFF" d="M51.422,78.372c25.02,8.179,50.734,12.804,76.796,14.226"/>
		<g>
			<path fill="#CACAEA" d="M50.919,80.198c25.068,8.103,51.009,12.78,77.3,14.293c2.44,0.141,2.427-3.646,0-3.786
				c-25.964-1.495-51.541-6.157-76.293-14.158C49.596,75.793,48.606,79.45,50.919,80.198L50.919,80.198z"/>
		</g>
	</g>
	<g>
		<path fill="#FFFFFF" d="M131.346,59.876c16.332-0.711,36.487,8.892,51.082,15.293"/>
		<g>
			<path fill="#CACAEA" d="M131.346,61.77c17.592-0.44,34.422,8.125,50.127,15.035c2.212,0.973,4.142-2.288,1.91-3.27
				c-16.348-7.192-33.731-16.01-52.037-15.552C128.909,58.044,128.903,61.831,131.346,61.77L131.346,61.77z"/>
		</g>
	</g>
	<g>
		<path fill="#FFFFFF" d="M183.469,93.665c-0.348,6.402-4.865,13.871-7.645,19.917c-4.518,10.314-9.034,21.341-17.723,28.453
			c-7.644,6.046-20.501,6.759-21.892,16.717c-1.39,8.179,2.434,22.052-2.085,29.521c-3.822,6.046-15.289,8.891-20.849,12.091"/>
		<g>
			<path fill="#CACAEA" d="M181.575,93.665c-0.669,6.819-4.522,12.883-7.386,18.961c-2.652,5.632-4.946,11.357-8.068,16.763
				c-3.188,5.518-7.354,10.461-12.976,13.563c-4.478,2.469-9.43,3.902-13.58,6.967c-8.266,6.103-5.175,18.047-5.048,26.799
				c0.1,6.865-1.531,11.668-7.59,15.243c-4.632,2.733-9.892,4.196-14.607,6.767c-2.144,1.169-0.233,4.438,1.911,3.27
				c8.385-4.57,19.864-6.358,23.137-16.604c3.532-11.058-5.117-26.95,6.872-34.023c4.48-2.644,9.519-4.101,13.876-6.999
				c5.2-3.461,8.977-9.093,12.046-14.406c3.346-5.793,5.652-12.099,8.577-18.098c2.858-5.864,5.976-11.607,6.623-18.202
				C185.601,91.235,181.812,91.258,181.575,93.665L181.575,93.665z"/>
		</g>
	</g>
	<g>
		<path fill="#FFFFFF" d="M89.299,193.962c-7.297,2.489-13.552,2.847-21.197,2.847c-5.212,0-9.73,0.354-14.248-2.847
			c-3.126-2.135-4.864-5.689-8.339-7.468c-3.127,3.557-5.56,8.534-7.297,12.803"/>
		<g>
			<path fill="#CACAEA" d="M88.796,192.137c-7.808,2.518-15.612,2.766-23.743,2.79c-4.621,0.014-8.527-0.871-11.993-4.121
				c-2.222-2.084-3.944-4.344-6.589-5.946c-0.674-0.408-1.766-0.346-2.294,0.296c-3.391,4.121-5.733,8.736-7.784,13.639
				c-0.942,2.252,2.724,3.224,3.651,1.006c1.785-4.269,3.856-8.378,6.811-11.967c-0.765,0.099-1.53,0.197-2.294,0.296
				c3.271,1.981,5.133,5.44,8.339,7.468c3.354,2.121,6.749,2.904,10.681,3.095c8.805,0.429,17.809-0.191,26.223-2.904
				C92.117,195.041,91.126,191.385,88.796,192.137L88.796,192.137z"/>
		</g>
	</g>
</g>
</svg>
