<?xml version="1.0" encoding="utf-8"?>
<!-- Generator: Adobe Illustrator 16.0.3, SVG Export Plug-In . SVG Version: 6.00 Build 0)  -->
<!DOCTYPE svg PUBLIC "-//W3C//DTD SVG 1.1//EN" "http://www.w3.org/Graphics/SVG/1.1/DTD/svg11.dtd">
<svg version="1.1" id="Layer_1" xmlns="http://www.w3.org/2000/svg" xmlns:xlink="http://www.w3.org/1999/xlink" x="0px" y="0px"
	 width="256px" height="256px" viewBox="0 0 256 256" enable-background="new 0 0 256 256" xml:space="preserve">
<g>
	<path fill="#3E92C1" d="M240.281,88.657c0-9.749-1.114-19.22-7.242-27.298c-8.914-11.142-25.905-18.384-38.719-23.12
		c-12.687-4.757-26.29-4.339-39.16-8.202c-5.674-1.703-10.972-1.515-16.824-1.827c-7.628-0.407-14.847-1.954-22.591-1.95
		c-7.028,0.004-13.956-0.726-20.868-0.835c-17.549-0.279-35.655,6.128-51.811,12.256C28.582,43.532,14.933,55.51,5.741,68.044
		c-5.571,7.8-6.685,12.256-2.785,20.892c3.621,7.242,3.342,14.206,4.178,22.284c1.114,9.471-0.279,20.334,3.064,29.248
		c2.229,6.686,6.407,11.978,3.621,18.385c-6.407,14.763-8.078,36.49-0.557,51.253c5.014,9.192,9.75,19.777,19.777,23.956
		c17.549,7.521,39.554,5.571,57.938,4.178c21.17-1.671,42.062,1.114,63.231,1.394c17.549,0,43.176,4.178,54.596-13.649
		c3.621-5.571,6.129-12.535,8.914-18.663c4.457-9.749,12.256-16.991,17.549-26.184c9.749-17.271-1.672-35.655,1.393-54.039
		c1.671-8.635,4.179-16.713,3.899-25.627c0-4.178,0.836-10.585-0.835-14.206"/>
	<g>
		<path fill="#CACAEA" d="M241.781,88.657c-0.083-12.291-2.415-23.645-11.509-32.48c-8.394-8.154-19.691-13.146-30.411-17.423
			c-13.818-5.513-28.284-6.004-42.543-9.662c-6.382-1.637-12.408-2.075-18.982-2.381c-8.21-0.382-16.263-1.896-24.505-1.966
			c-7.541-0.063-15.044-0.953-22.591-0.784c-7.522,0.168-15.016,1.665-22.284,3.505c-13.686,3.464-27.913,8.196-39.782,15.971
			C18.409,50.489,8.422,60.31,1.786,71.372c-2.283,3.805-2.979,7.811-2.27,12.153c0.509,3.12,2.176,6.004,3.321,8.901
			c1.513,3.829,1.891,8.05,2.236,12.111c1.12,13.139-0.092,27.154,4.914,39.568c1.354,3.357,2.94,6.454,3.255,10.112
			c0.27,3.141-1.889,6.638-2.874,9.551c-2,5.915-2.984,12.156-3.441,18.367c-0.904,12.285,2.024,23.114,7.78,33.833
			c2.585,4.814,5.403,9.447,9.127,13.471c4.035,4.361,9.432,6.56,14.985,8.292c13.041,4.068,27.292,3.637,40.757,2.831
			c15.398-0.921,30.451-1.514,45.884-0.709c13.614,0.71,27.208,1.172,40.832,1.596c10.29,0.319,20.984,0.278,30.646-3.722
			c11.541-4.78,16.08-15.735,20.699-26.525c5.762-13.456,18.403-23.327,22.174-37.589c3.73-14.108-2.893-28.913-2.057-43.173
			c0.459-7.839,3.326-15.495,4.136-23.34c0.634-6.141,1.451-14.344-0.72-20.234c-0.663-1.799-3.563-1.021-2.893,0.798
			c2.091,5.671,1.023,13.49,0.612,19.436c-0.547,7.913-3.354,15.465-4.136,23.34c-1.414,14.25,5.146,28.126,2.164,42.375
			c-1.47,7.021-6.288,12.904-10.528,18.472c-4.454,5.848-8.403,11.636-11.343,18.4c-2.75,6.327-5.212,13.011-9.658,18.388
			c-3.833,4.636-9.42,7.209-15.104,8.733c-10.521,2.821-21.874,1.645-32.623,1.369c-15.209-0.389-30.381-1.455-45.587-1.881
			c-14.852-0.416-29.551,1.496-44.38,1.741c-13.684,0.226-31.402-0.529-41.74-10.72c-4.356-4.294-7.186-10.1-10.034-15.434
			c-3.47-6.497-5.342-13.055-5.964-20.397c-0.559-6.579,0.088-13.248,1.38-19.702c1.181-5.898,4.631-11.596,4.904-17.567
			c0.263-5.775-4.021-11.794-5.546-17.187c-2.045-7.231-1.349-15.176-1.773-22.606c-0.345-6.034-0.809-12.223-1.904-18.17
			c-1.281-6.958-6.344-12.707-4.188-20.05c1.92-6.54,7.955-12.412,12.521-17.229c5.392-5.688,11.546-10.615,18.182-14.769
			C46.227,36.259,62.458,31.7,77.026,28.684c7.802-1.615,15.581-1.924,23.512-1.557c8.212,0.38,16.506,0.391,24.681,1.243
			c7.215,0.751,14.359,1.279,21.596,1.734c8.027,0.504,16.006,3.428,23.996,4.62c15.795,2.356,30.169,6.667,44.246,14.339
			c6.644,3.622,13.204,8.203,17.662,14.414c5.204,7.251,6.003,16.552,6.062,25.182C238.794,90.591,241.794,90.592,241.781,88.657
			L241.781,88.657z"/>
	</g>
</g>
<g>
	<path fill="#493307" d="M237.774,135.732c6.128-1.393,8.914-14.206,5.571-19.22c-4.457-7.243-16.435-8.914-23.677-8.914
		c-9.75,0-19.499,2.507-29.248,3.621c-13.649,1.671-27.577,1.114-41.226,1.114c-14.206,0-28.134-2.507-42.34-3.622
		c-15.042-1.393-30.083-0.835-45.125-2.507c-14.207-1.671-31.755-3.621-44.847,3.9c-3.342,2.229-10.585,5.85-12.535,9.471
		c-1.671,3.621-0.557,11.142,0.557,14.763c2.507,9.192,11.978,6.964,20.056,6.964c27.02,0,54.317-1.114,81.337,0.836
		c30.919,2.507,66.574,12.813,96.937,3.063c8.356-2.507,16.435-5.57,24.512-8.078c2.786-0.835,5.015-1.393,7.8-1.114"/>
	<g>
		<path fill="#CACAEA" d="M238.173,137.179c7.155-2.273,8.997-12.191,7.652-18.627c-1.866-8.932-14.13-11.476-21.587-12.243
			c-14.313-1.473-28.92,3.331-43.16,4.239c-15.595,0.995-31.736,0.868-47.297-0.52c-16.212-1.445-32.217-3.408-48.508-3.932
			c-14.683-0.472-29.292-2.834-43.961-2.927c-12.311-0.078-22.397,3.515-32.543,10.235c-3.048,2.019-6.043,4.443-6.538,8.272
			c-0.593,4.589-0.176,10.44,1.805,14.715c2.585,5.579,7.811,6.648,13.503,6.646c10.203-0.005,20.429-0.297,30.636-0.409
			c22.148-0.242,44.465-0.646,66.51,1.85c20.486,2.32,40.756,6.543,61.461,6.32c9.307-0.1,18.588-1.403,27.485-4.148
			c5.317-1.64,10.579-3.432,15.845-5.229c5.144-1.756,10.55-4.152,16.068-3.909c1.935,0.085,1.927-2.915,0-3
			c-6.406-0.282-12.647,2.577-18.605,4.61c-7.368,2.516-14.735,5.146-22.357,6.787c-14.696,3.165-30.137,1.985-44.937,0.273
			c-14.474-1.673-28.822-4.304-43.349-5.542c-16.072-1.37-32.313-1.227-48.428-1.106c-14.203,0.106-28.547,0.915-42.736,0.467
			c-7.753-0.245-9.423-6.427-10.052-13.042c-0.757-7.971,4.729-10.791,10.772-14.435c12.154-7.328,26.159-6.881,39.827-5.5
			c15.746,1.592,31.473,1.799,47.25,2.867c14.809,1.003,29.472,3.589,44.329,3.928c14.969,0.341,30.108,0.502,44.989-1.323
			c12.697-1.558,25.197-5.032,37.978-2.223c5.613,1.234,12.166,4.307,12.981,10.641c0.565,4.395-1.021,11.843-5.832,13.372
			C235.539,134.869,236.324,137.767,238.173,137.179L238.173,137.179z"/>
	</g>
</g>
<g>
	<path fill="#327A30" d="M240.56,138.317c-6.406,0-12.813-3.343-19.22-3.621c-10.027-0.836-20.613-0.836-30.362,0.278
		c-10.027,1.114-17.549,5.571-27.02,8.356c-11.42,3.064-25.627,1.95-37.326,0.279c-17.27-2.507-34.262-5.015-51.253-7.8
		c-13.371-1.95-27.855-3.899-41.504-3.064c-9.749,0.836-27.02,2.229-28.134,15.042c-1.671,19.777,29.527,19.221,41.226,16.992
		c17.827-3.343,36.769-3.9,54.875-4.735c16.713-0.836,32.869-2.229,49.583-2.229c22.005,0,41.782,3.621,63.51-1.95
		c4.456-1.114,28.412-6.686,27.298-14.763"/>
	<g>
		<path fill="#CACAEA" d="M240.56,136.817c-7.165-0.32-13.921-3.209-21.106-3.768c-8.245-0.643-16.541-0.58-24.783,0.059
			c-14.242,1.104-26.43,9.009-40.57,10.371c-15.361,1.479-31.033-1.868-46.157-4.115c-15.2-2.259-30.349-4.947-45.602-6.825
			c-12.656-1.559-25.398-2.146-38.039-0.211c-7.771,1.189-16.14,4.016-19.32,11.842c-2.712,6.673,0.626,13.904,6.103,17.825
			c6.202,4.44,14.929,5.201,22.301,5.351c5.335,0.108,10.591-0.503,15.829-1.455c12.359-2.247,24.966-3.018,37.493-3.653
			c23.993-1.219,48.146-3.46,72.181-2.798c20.076,0.553,39.412,2.203,59.115-2.794c6.893-1.748,26.305-5.604,25.729-15.542
			c-0.111-1.923-3.112-1.934-3,0c0.416,7.163-16.133,10.644-21.205,12.038c-12.215,3.359-24.487,4.522-37.136,4.27
			c-15.469-0.31-30.781-1.358-46.269-0.756c-15.844,0.616-31.671,1.744-47.511,2.489c-14.585,0.686-28.968,2.012-43.369,4.421
			c-7.981,1.335-16.601,1.178-24.467-0.706c-8.857-2.122-17.22-9.607-12.203-19.39c4.353-8.486,19.002-8.896,27.168-9.32
			c18.2-0.944,36.458,2.728,54.351,5.518c17.134,2.671,34.459,6.022,51.795,6.967c7.535,0.41,15.136-0.028,22.47-1.856
			c7.495-1.868,14.398-5.617,21.921-7.481c8.76-2.171,18.505-1.866,27.459-1.565c4.783,0.16,9.537,0.479,14.193,1.623
			c4.23,1.041,8.253,2.269,12.63,2.464C242.494,139.904,242.486,136.903,240.56,136.817L240.56,136.817z"/>
	</g>
</g>
<g>
	<path fill="#327A30" d="M244.346,107.471c-6.964-1.393-13.649-3.9-20.335-5.292c-19.776-3.621-39.554-6.128-59.331-8.356
		c-22.284-2.786-44.847-3.343-67.41-3.343c-19.499,0-40.39,3.9-59.888,6.686c-10.028,1.671-20.613,1.393-30.362,3.899
		c-2.507,0.557-5.014,1.393-6.685,3.064c2.507,1.95,6.685,3.343,9.471,4.735c6.128,3.343,12.813,2.786,19.499,2.786
		c22.005,0,44.011,1.671,66.295,1.671c20.613,0,41.225,0.279,61.838,1.393c21.448,1.114,43.732-0.835,65.459-0.835
		c7.521,0,13.928-1.114,20.613-4.735"/>
	<g>
		<path fill="#CACAEA" d="M244.744,106.024c-10.061-2.146-19.725-5.255-29.904-6.961c-10.304-1.727-20.657-3.153-31.021-4.47
			c-21.72-2.76-43.386-4.866-65.284-5.397c-21.271-0.516-41.9,0.622-62.949,3.737C44.731,94.54,33.939,96.289,23,97.222
			c-7.64,0.651-17.557,0.742-23.726,5.846c-0.795,0.658-0.425,1.854,0.304,2.356c15.607,10.736,35.119,7.595,53.038,8.203
			c22.319,0.758,44.593,1.044,66.921,1.352c22.238,0.306,44.412,1.947,66.657,1.351c10.956-0.293,21.903-0.802,32.863-0.933
			c9.006-0.107,17.067-0.769,25.21-4.959c1.721-0.886,0.203-3.474-1.514-2.591c-8.861,4.561-17.831,4.449-27.546,4.604
			c-10.318,0.165-20.631,0.654-30.946,0.931c-20.927,0.561-41.811-1.019-62.729-1.373c-21.041-0.355-42.045-0.38-63.079-1.17
			c-10.268-0.386-20.543-0.735-30.82-0.68c-9.599,0.052-18.482-1.781-26.542-7.325c0.102,0.786,0.203,1.571,0.304,2.356
			c4.136-3.421,11.069-3.838,16.199-4.446c4.798-0.568,9.629-0.845,14.435-1.349c9.41-0.988,18.767-2.756,28.128-4.122
			c20.792-3.034,41.264-3.545,62.24-2.976c20.596,0.559,40.993,2.739,61.422,5.298c10.743,1.346,21.459,2.894,32.138,4.684
			c9.527,1.597,18.57,4.631,27.99,6.64C245.834,109.319,246.636,106.428,244.744,106.024L244.744,106.024z"/>
	</g>
</g>
<g>
	<path fill="#E5EABE" d="M154.487,4.813c-18.384-1.114-38.997-3.9-57.103,0c-7.521,1.671-11.42,3.621-16.713,8.914
		c-4.457,4.735-10.307,8.635-1.114,11.42c24.234,7.243,51.253,6.686,76.044,4.457c4.735-0.557,15.042-1.671,18.663-5.85
		c4.179-4.735-1.95-9.75-6.128-12.256c-8.356-5.292-16.156-5.292-25.627-5.292"/>
	<g>
		<path fill="#CACAEA" d="M154.487,3.313c-12.576-0.793-25.119-2.105-37.735-1.991C106.34,1.417,94.315,2.197,85.28,7.901
			c-3.694,2.332-6.803,5.769-9.754,8.952c-1.341,1.446-3.217,4.058-1.977,6.123c2.104,3.502,7.255,4.127,10.843,5.053
			c6.013,1.552,12.163,2.523,18.32,3.284c12.76,1.576,25.697,1.495,38.516,0.841c9.299-0.475,20.442-0.359,29.176-4.148
			c7.711-3.345,8.551-10.294,1.798-15.495c-8.899-6.855-18.82-7.797-29.691-7.804c-1.935-0.001-1.935,2.999,0,3
			c8.858,0.006,17.073,0.417,24.87,5.088c1.867,1.119,3.524,2.447,5.048,4.003c3.164,3.232,0.771,6.483-2.427,8.136
			c-3.21,1.659-7.163,2.175-10.689,2.707c-18.449,2.781-38.095,2.75-56.6,0.673c-4.703-0.528-9.365-1.36-13.991-2.347
			c-2.966-0.632-15.048-2.26-11.074-6.993c5.051-6.013,10.942-10.367,18.578-12.35c18.792-4.881,39.209-1.512,58.262-0.31
			C156.42,6.436,156.408,3.435,154.487,3.313L154.487,3.313z"/>
	</g>
</g>
<g>
	<path fill="#E5EABE" d="M75.379,237.683c-6.964,12.813,20.056,11.142,26.462,11.421c16.435,0.557,38.162,12.256,53.204,1.671
		c4.178-2.785,8.356-6.128,1.949-9.192c-9.471-4.457-22.284-2.785-32.312-3.063c-11.421-0.836-23.12,0.557-34.541-0.558
		c-4.457-0.278-9.75-1.671-14.485-0.557"/>
	<g>
		<path fill="#CACAEA" d="M74.083,236.926c-5.819,11.693,10.636,13.2,18.361,13.528c6.809,0.289,13.213,0.251,19.97,1.617
			c9.802,1.981,19.476,5.007,29.585,4.539c6.628-0.307,16.328-3.563,19.46-9.998c3.432-7.052-12.77-9.037-16.405-9.402
			c-5.274-0.529-10.632-0.239-15.921-0.168c-5.958,0.08-11.904-0.346-17.868-0.267c-6.415,0.087-12.809,0.257-19.217-0.151
			c-5.651-0.36-11.138-1.67-16.79-0.666c-1.902,0.338-1.094,3.229,0.798,2.893c4.23-0.751,8.362-0.008,12.571,0.481
			c4.95,0.575,9.957,0.604,14.932,0.57c9.04-0.061,18.083,0.241,27.114,0.119c8.57-0.116,17.517-0.631,25.563,2.855
			c6.969,3.021-5.995,8.897-7.849,9.548c-3.857,1.354-8.063,1.373-12.093,1.146c-12.884-0.725-24.985-5.955-37.987-6.015
			c-5.303-0.024-26.565,0.791-21.634-9.117C77.533,236.714,74.946,235.193,74.083,236.926L74.083,236.926z"/>
	</g>
</g>
</svg>
