<?xml version="1.0" encoding="utf-8"?>
<!-- Generator: Adobe Illustrator 16.0.3, SVG Export Plug-In . SVG Version: 6.00 Build 0)  -->
<!DOCTYPE svg PUBLIC "-//W3C//DTD SVG 1.1//EN" "http://www.w3.org/Graphics/SVG/1.1/DTD/svg11.dtd">
<svg version="1.1" id="Layer_1" xmlns="http://www.w3.org/2000/svg" xmlns:xlink="http://www.w3.org/1999/xlink" x="0px" y="0px"
	 width="256px" height="256px" viewBox="0 0 256 256" enable-background="new 0 0 256 256" xml:space="preserve">
<g>
	<path fill="#DDBD97" d="M45.295,188.379c8.078-15.599,12.256-32.313,22.005-47.075c12.256-18.941,26.184-38.162,36.49-58.217
		c9.75-19.777,7.799-45.961,23.398-62.674c3.064-3.342,7.242-7.242,11.142-9.192c2.508-1.393,3.064-1.95,5.293-0.836
		c3.621,1.95,8.078,12.813,10.027,16.435c19.777,34.819,37.884,69.638,47.075,108.914c4.179,17.271,14.764,32.869,18.385,50.14"/>
	<g>
		<path fill="#EAD065" d="M46.591,189.136c6.547-12.875,10.865-26.737,17.551-39.545c7.043-13.493,16.698-25.813,24.958-38.578
			c7.541-11.652,15.497-23.685,19.878-36.945c3.88-11.743,5.347-24.13,9.467-35.813c2.182-6.188,5.413-11.901,9.805-16.782
			c2.472-2.747,5.213-5.239,8.213-7.396c3.948-2.84,6.935-2.785,9.642,1.388c2.476,3.813,4.159,8.09,6.252,12.111
			c3.621,6.96,7.708,13.702,11.437,20.609c14.49,26.84,27.123,54.737,34.627,84.389c4.694,18.548,15.086,35.055,19.245,53.697
			c0.421,1.889,3.313,1.088,2.893-0.797c-3.151-14.128-10.281-26.814-15.335-40.275c-2.499-6.655-3.888-13.631-5.772-20.469
			c-2.078-7.543-4.564-14.97-7.259-22.314c-4.989-13.601-11.016-26.81-17.483-39.764c-6.437-12.89-14.094-25.161-20.499-38.043
			c-2.008-4.036-7.248-19.34-14.33-15.901c-10.704,5.198-18.557,14.87-23.129,25.679c-4.674,11.049-6.281,23.14-9.405,34.658
			c-3.835,14.139-12.014,26.64-19.823,38.879c-8.244,12.921-17.596,25.277-25.142,38.625c-7.393,13.078-11.58,27.7-18.38,41.073
			C43.125,189.342,45.713,190.86,46.591,189.136L46.591,189.136z"/>
	</g>
</g>
<g>
	<path fill="#E5B451" d="M3.741,169.017c0.557-5.014,5.85-11.142,8.357-15.599c6.964-11.978,12.256-24.791,19.499-36.49
		c8.356-14.206,14.484-29.526,23.677-43.454c4.178-6.128,8.635-11.699,14.485-16.435c4.178-3.064,6.964-5.292,8.635-10.028
		c2.229-5.014,3.064-10.028,7.8-13.092c2.785-1.671,9.192-4.735,11.42-3.064c2.507,1.671,4.178,8.914,5.85,11.421
		c3.064,5.85,6.407,11.42,9.75,17.27c5.014,9.471,8.078,19.499,13.37,28.969c8.356,15.599,11.421,33.983,13.928,51.532
		c1.114,8.078,2.507,16.156,3.899,24.513c1.114-23.398,7.8-45.96,14.485-68.245c4.178-14.763,7.242-29.805,14.484-43.176
		c2.229-3.899,3.899-6.964,7.8-8.914c1.671-0.835,6.964-3.343,8.913-2.786c3.899,1.393,7.242,14.207,8.914,17.549
		c5.57,11.978,10.863,24.234,16.435,36.212c7.242,15.599,12.813,31.755,19.776,47.354c4.736,10.027,9.75,20.891,11.979,31.755"/>
	<g>
		<path fill="#EAD065" d="M5.187,169.415c0.951-5.34,4.747-9.713,7.581-14.183c3.425-5.402,6.188-11.287,9.058-16.994
			c6.241-12.414,13.419-24.281,19.702-36.669C47.949,88.907,54.171,75.999,63.5,65.163c3.759-4.366,8.552-7.412,12.577-11.451
			c3.674-3.687,4.7-9.282,6.874-13.833c1.721-3.6,11.771-11.504,15.104-6.131c2.654,4.279,4.214,9.56,6.676,14.019
			c3.189,5.775,6.721,11.345,9.55,17.312c3.029,6.388,5.49,13.029,8.527,19.416c2.953,6.212,6.129,12.08,8.384,18.62
			c2.267,6.573,3.793,13.392,5.113,20.208c2.67,13.785,4.345,27.784,6.658,41.634c0.292,1.749,2.859,1.205,2.946-0.398
			c1.363-25.226,9.286-48.792,15.842-72.964c3.183-11.735,6.088-23.551,11.323-34.584c2.218-4.672,4.724-9.463,9.543-11.824
			c2.086-1.022,4.375-2.058,6.711-2.326c1.412-0.162,2.615,2.777,3.141,3.762c3.627,6.792,5.988,14.681,9.181,21.718
			c5.225,11.513,10.559,22.995,15.614,34.582c5.065,11.609,9.448,23.505,14.385,35.169c5.126,12.114,11.263,23.662,14.101,36.615
			c0.414,1.89,3.306,1.088,2.893-0.797c-2.892-13.197-9.118-25.014-14.403-37.332c-5.495-12.811-10.267-25.915-15.92-38.661
			c-5.632-12.7-11.411-25.354-17.224-37.974c-2.823-6.131-4.068-15.229-9.692-19.526c-2.199-1.68-6.32,0.388-8.36,1.294
			c-3.759,1.669-6.457,3.654-8.813,7.059c-7.092,10.25-10.353,23.343-13.546,35.198c-7.176,26.639-16.273,52.813-17.774,80.59
			c0.982-0.133,1.964-0.266,2.946-0.398c-2.505-14.998-4.322-30.152-7.336-45.058c-1.376-6.808-3.216-13.507-5.585-20.036
			c-2.438-6.716-6.072-12.834-9.042-19.307c-2.948-6.427-5.435-13.043-8.568-19.389c-3.282-6.646-7.258-13.162-10.986-19.573
			c-2.061-3.544-2.419-8.194-5.666-11.005c-2.764-2.393-7.605,0.059-10.31,1.276c-4.574,2.059-7.205,5.241-9.133,9.808
			c-1.113,2.637-1.999,5.373-3.271,7.943c-1.575,3.179-4.648,4.974-7.262,7.157c-11.029,9.213-18.239,21.695-24.787,34.285
			c-6.987,13.434-14.519,26.578-21.433,40.037c-3.293,6.41-6.433,12.896-9.895,19.219c-2.85,5.206-7.066,9.951-9.239,15.484
			c-0.477,1.213-0.822,2.332-1.05,3.615C1.958,170.509,4.849,171.317,5.187,169.415L5.187,169.415z"/>
	</g>
</g>
<g>
	<path fill="#F9E873" d="M0.17,156.902c4.178,4.179,22.563,1.393,28.691,2.507c14.763,2.229,29.526,7.8,44.847,8.078
		c17.827,0.278,34.541-5.014,51.811-8.078c15.877-2.507,30.083-0.835,44.847,5.293c16.991,7.242,38.719,3.343,55.988-0.558
		c5.85-1.114,11.143-1.949,15.6,1.394c2.228,1.393,3.899,2.785,6.128,3.899c1.671,0.557,3.621,0.836,4.735,1.671
		c5.57,4.735,2.229,20.335,2.229,27.298c0,15.6-0.279,31.477,0.278,47.075c0.278,5.015,2.785,9.659-2.229,11.331
		c-3.343,1.113-8.914,0.188-12.256,0.188c-7.8,0-15.6,0-23.398,0c-18.663,0-37.604,0-56.268,0c-19.777,0-39.276,2-59.053,2
		c-23.677,0-47.075,0-70.752,0c-8.635,0-17.27-0.771-25.905-1.606c-4.457-0.278-7.242-0.385-8.356-5.12
		c-1.95-7.521-1.671-16.766-1.114-24.287c0.835-12.256,1.393-24.261,0.835-36.238c-0.278-6.964-1.114-13.384-0.557-20.348
		c0.279-3.899,0-11.984,3.343-14.77"/>
	<g>
		<path fill="#EAD065" d="M-0.891,157.963c5.725,4.847,16.703,2.78,23.543,2.668c13.376-0.219,26.596,5.178,39.714,7.308
			c30.852,5.007,59.975-12.285,90.685-6.898c6.938,1.216,13.298,3.856,19.872,6.243c6.197,2.249,12.973,2.871,19.516,2.975
			c13.753,0.218,26.558-4.199,40.062-5.53c7.159-0.706,11.337,5.13,17.758,6.888c5.915,1.618,4.332,12.382,4.014,16.823
			c-0.988,13.771-0.861,27.562-0.77,41.372c0.045,6.64-0.203,13.438,0.901,20.003c0.863,5.138-2.069,5.885-6.696,5.77
			c-3.603-0.091-7.153-0.459-10.769-0.459c-16.202,0-32.403,0-48.605,0c-16.285,0-32.559-0.141-48.831,0.595
			c-16.419,0.74-32.763,1.355-49.201,1.355c-16.361,0-32.722,0-49.083,0c-7.609,0-15.202,0.02-22.803-0.383
			c-3.706-0.197-7.406-0.505-11.102-0.836c-4.695-0.42-7.858-0.271-9.122-5.612c-1.589-6.718-1.228-13.951-0.807-20.784
			c0.502-8.161,1.016-16.307,1.146-24.485c0.224-14.004-2.277-28.271-0.103-42.199c0.294-1.885,0.883-3.702,2.246-5.09
			c1.356-1.381-0.764-3.503-2.121-2.121c-2.748,2.797-3.187,6.732-3.506,10.478c-0.571,6.699-0.464,13.383-0.031,20.085
			c1.006,15.569-0.011,30.949-0.808,46.494c-0.35,6.816-2.161,24.507,7.696,25.75c14.986,1.89,30.144,1.704,45.215,1.704
			c32.823,0,65.487-0.288,98.282-1.608c16.238-0.653,32.521-0.342,48.77-0.342c15.931,0,31.938-0.454,47.86,0.037
			c4.59,0.141,9.889,1.602,13.87-1.416c3.277-2.483,1.223-8.006,0.924-11.264c-1.44-15.727-0.538-32.172-0.263-47.951
			c0.143-8.179,3.643-19.389-1.822-26.56c-0.96-1.261-2.228-1.751-3.682-2.248c-3.607-1.233-6.418-3.214-9.582-5.291
			c-4.477-2.937-10.659-1.638-15.52-0.733c-13.923,2.589-27.43,5.593-41.699,4.07c-7.191-0.768-13.51-3.749-20.274-6.025
			c-6.702-2.257-13.715-3.424-20.758-3.856c-14.864-0.912-29.375,3.505-43.801,6.369c-7.863,1.561-15.788,2.606-23.81,2.74
			c-8.467,0.142-16.822-1.589-25.033-3.469c-8.804-2.016-17.761-4.881-26.863-4.905c-3.917-0.011-7.831,0.196-11.748,0.18
			c-3.241-0.014-8.098,0.275-10.739-1.96C-0.236,154.6-2.369,156.711-0.891,157.963L-0.891,157.963z"/>
	</g>
</g>
<g>
	<path fill="#3089C6" d="M49.195,165.816c5.014,3.343,7.521,11.142,12.256,15.599c9.192,7.8,23.956,12.535,35.655,13.37
		c21.448,1.672,42.339-0.278,63.231-5.014c10.028-2.229,19.777-5.014,29.248-8.078c5.014-1.671,16.435-1.671,20.056-5.292
		c1.95-2.229,0.278-5.293,1.95-7.8"/>
	<g>
		<path fill="#1127C9" d="M48.438,167.111c5.652,4.257,7.551,11.768,13.038,16.251c5.241,4.281,11.578,7.1,17.924,9.303
			c15.905,5.523,33.964,4.803,50.486,3.435c18.611-1.541,36.916-5.824,54.741-11.268c6.565-2.004,13.058-2.847,19.718-4.374
			c1.902-0.437,4.161-1.135,5.684-2.425c2.858-2.425,1.435-5.553,2.857-8.675c0.796-1.746-1.789-3.272-2.59-1.514
			c-1.011,2.217-0.826,7.034-2.889,8.342c-2.515,1.595-6.12,1.896-8.986,2.358c-6.308,1.018-12.065,2.647-18.195,4.484
			c-17.038,5.106-34.514,8.761-52.251,10.229c-15.816,1.31-32.547,1.45-47.777-3.485c-6.559-2.126-13.777-5.427-18.667-10.422
			c-4.474-4.569-6.336-10.882-11.577-14.829C48.405,163.356,46.913,165.963,48.438,167.111L48.438,167.111z"/>
	</g>
</g>
<g>
	<g>
		<path fill="#825A0B" d="M43.57,161.691c-2.83-2.38,0.412-9.596,1.431-12.371c1.768-4.813,4.354-9.189,7.241-13.407
			c6.941-10.139,15.741-21.481,26.958-27.019c1.734-0.856,0.214-3.444-1.515-2.591c-12.649,6.245-22.273,19.282-29.866,30.825
			c-3.136,4.77-5.451,10.057-7.085,15.517c-0.98,3.272-2.364,8.578,0.715,11.167C42.919,165.049,45.053,162.938,43.57,161.691
			L43.57,161.691z"/>
	</g>
</g>
<g>
	<path fill="#5CB528" d="M77.607,107.042c0.557,3.899,7.799,30.919,13.37,20.891c1.393-2.786,0-11.142-1.393-13.928
		c-1.671-4.178-5.571-5.85-9.75-7.242"/>
	<g>
		<path fill="#AAD85B" d="M76.161,107.441c0.766,4.833,2.429,9.661,4.199,14.201c1.25,3.206,3.379,9.38,7.45,9.952
			c5.46,0.767,5.373-7.349,5.015-10.625c-0.374-3.431-1.207-6.83-3.066-9.765c-2.053-3.24-6.088-4.708-9.525-5.888
			c-1.835-0.63-2.616,2.269-0.798,2.893c3.313,1.138,6.398,2.404,8.344,5.474c1.481,2.338,1.867,5.651,2.159,8.328
			c0.366,3.361-0.636,9.334-3.943,4.398c-3.679-5.492-5.911-13.256-6.942-19.766C78.752,104.737,75.861,105.549,76.161,107.441
			L76.161,107.441z"/>
	</g>
</g>
<g>
	<path fill="#5CB528" d="M79,106.485c-4.735-2.507-11.42-1.95-16.713-1.393c-3.064,0.279-11.142,3.064-9.75-1.671
		c1.95-6.685,20.056-4.735,23.677-1.114"/>
	<g>
		<path fill="#AAD85B" d="M79.757,105.189c-4.647-2.12-9.432-2.23-14.465-1.883c-3.519,0.243-7.659,1.819-11.128,1.268
			c-1.713-0.272,3.067-3.296,3.431-3.414c2.135-0.695,4.475-0.69,6.695-0.646c3.332,0.067,8.208,0.551,10.864,2.854
			c1.454,1.261,3.585-0.852,2.121-2.121c-5.059-4.386-21.262-6.659-25.409,0.155c-2.084,3.425-0.405,6.156,3.437,6.254
			c2.344,0.06,4.679-0.77,6.984-1.064c5.256-0.671,11.025-1.062,15.956,1.188C79.989,108.577,81.515,105.992,79.757,105.189
			L79.757,105.189z"/>
	</g>
</g>
<g>
	<path fill="#5CB528" d="M77.05,103.142c0.557-6.964-3.343-15.042-8.078-19.777c14.206-4.178,18.384,22.284,8.078,20.892"/>
	<g>
		<path fill="#AAD85B" d="M78.55,103.142c0.332-7.791-3.223-15.266-8.518-20.838c-0.221,0.835-0.441,1.671-0.662,2.507
			c11.887-3.067,15.194,18.606,7.679,17.945c-1.928-0.169-1.912,2.832,0,3c12.521,1.102,7.481-27.956-8.477-23.838
			c-1.119,0.289-1.424,1.705-0.662,2.507c4.771,5.021,7.938,11.7,7.639,18.717C75.468,105.077,78.468,105.069,78.55,103.142
			L78.55,103.142z"/>
	</g>
</g>
<g>
	<path fill="#5CB528" d="M76.493,104.256c7.242-3.343,13.092-9.192,21.727-8.356c6.407,0.557,10.585,4.735,15.042,8.635
		c-3.621-0.278-6.964-2.785-10.585-3.064c-3.342-0.557-7.242,0-10.585,0.557c-4.457,0.835-8.914,1.671-13.37,2.786"/>
	<g>
		<path fill="#AAD85B" d="M77.25,105.552c5.166-2.516,9.79-6.074,15.35-7.723c7.936-2.353,14.105,2.921,19.602,7.766
			c0.486-0.835,0.973-1.671,1.459-2.507c-5.776-0.913-10.215-3.551-16.276-3.257c-6.369,0.309-12.89,2.045-19.062,3.536
			c-1.88,0.454-1.083,3.347,0.798,2.893c6.001-1.449,12.114-2.813,18.264-3.428c5.755-0.576,10.054,2.292,15.479,3.149
			c1.337,0.211,2.705-1.409,1.459-2.507c-5.36-4.726-10.271-8.778-17.689-9.155c-7.724-0.393-14.365,5.46-20.896,8.642
			C73.997,103.808,75.519,106.395,77.25,105.552L77.25,105.552z"/>
	</g>
</g>
<g>
	<g>
		<path fill="#825A0B" d="M214.43,165.696c-1.647-8.183-2.758-16.762-6.336-24.393c-4.005-8.54-10.007-15.831-15.264-23.599
			c-1.077-1.592-3.678-0.093-2.59,1.515c4.58,6.769,9.667,13.175,13.648,20.334c4.587,8.25,5.813,17.825,7.648,26.939
			C211.919,168.39,214.811,167.585,214.43,165.696L214.43,165.696z"/>
	</g>
</g>
<g>
	<path fill="#5CB528" d="M190.699,116.791c-3.621,3.064-11.699,22.284-18.663,15.32c-5.85-5.571,8.914-13.927,13.37-14.484"/>
	<g>
		<path fill="#AAD85B" d="M189.639,115.73c-4.904,4.528-6.756,13.701-13.426,16.221c-1.852,0.699-3.982-1.016-4.023-2.897
			c-0.042-1.873,2.172-3.663,3.43-4.758c2.724-2.372,6.581-4.632,10.186-5.223c1.906-0.312,1.095-3.203-0.797-2.893
			c-5.881,0.963-22.404,10.965-13.229,17.68c8.824,6.458,15.415-11.792,19.981-16.009
			C193.184,116.537,191.058,114.42,189.639,115.73L189.639,115.73z"/>
	</g>
</g>
<g>
	<path fill="#5CB528" d="M188.471,116.513c4.457,0,28.412,3.064,28.134-1.671c-0.278-8.356-25.905-1.114-30.362,1.114"/>
	<g>
		<path fill="#AAD85B" d="M188.471,118.013c4.537,0.073,32.078,4.819,29.364-4.684c-1.502-5.259-10.56-3.968-14.334-3.474
			c-6.021,0.79-12.49,2.193-18.016,4.805c-1.748,0.827-0.225,3.413,1.514,2.591c3.97-1.877,8.519-2.843,12.789-3.738
			c3.307-0.693,12.518-3.006,15.071,0.493c1.474,2.021-11.823,1.907-13.205,1.847c-4.395-0.191-8.785-0.77-13.184-0.84
			C186.535,114.981,186.538,117.981,188.471,118.013L188.471,118.013z"/>
	</g>
</g>
<g>
	<path fill="#5CB528" d="M185.686,116.234c3.621-3.064,3.621-11.978,7.242-16.156c3.063-3.343,8.356-4.735,12.813-5.014
		c-1.672,7.521-13.092,13.371-17.549,19.777"/>
	<g>
		<path fill="#AAD85B" d="M186.746,117.294c2.779-2.739,3.551-6.808,4.62-10.417c2.098-7.077,7.261-9.726,14.375-10.313
			c-0.482-0.633-0.964-1.266-1.446-1.899c-2.313,8.396-12.432,12.71-17.397,19.419c-1.153,1.558,1.453,3.051,2.59,1.515
			c5.261-7.106,15.212-11.099,17.7-20.136c0.243-0.881-0.461-1.98-1.446-1.899c-5.243,0.434-11.063,1.82-14.445,6.192
			c-3.462,4.475-2.627,11.432-6.671,15.417C183.245,116.533,185.368,118.653,186.746,117.294L186.746,117.294z"/>
	</g>
</g>
<g>
	<path fill="#5CB528" d="M187.078,115.398c-4.179-5.85-16.435-6.686-23.12-7.243c-2.507,0-11.978,1.393-8.078,5.571
		c1.672,1.671,13.371-0.835,15.6-0.835c4.178-0.279,9.749-1.393,13.648,0.278"/>
	<g>
		<path fill="#AAD85B" d="M188.139,114.338c-4.376-5.396-12.171-6.404-18.643-7.173c-4.279-0.508-12.219-1.48-15.271,2.661
			c-3.213,4.359,2.807,6.062,5.946,5.927c7.914-0.339,16.829-3.75,24.558-1.137c1.838,0.622,2.619-2.277,0.797-2.893
			c-5.036-1.703-10.685-0.808-15.86-0.154c-2.467,0.312-11.314,2.926-13.07,0.649c-0.985-1.277,5.574-2.432,6.136-2.495
			c2.21-0.248,4.567,0.208,6.765,0.441c5.665,0.6,12.718,1.604,16.521,6.294C187.236,117.962,189.346,115.826,188.139,114.338
			L188.139,114.338z"/>
	</g>
</g>
</svg>
