<?xml version="1.0" encoding="utf-8"?>
<!-- Generator: Adobe Illustrator 16.0.3, SVG Export Plug-In . SVG Version: 6.00 Build 0)  -->
<!DOCTYPE svg PUBLIC "-//W3C//DTD SVG 1.1//EN" "http://www.w3.org/Graphics/SVG/1.1/DTD/svg11.dtd">
<svg version="1.1" id="Layer_1" xmlns="http://www.w3.org/2000/svg" xmlns:xlink="http://www.w3.org/1999/xlink" x="0px" y="0px"
	 width="256px" height="256px" viewBox="0 0 256 256" enable-background="new 0 0 256 256" xml:space="preserve">
<g>
	<path fill="#D19956" d="M1.563,16.791c3.622,0,7.243-0.278,10.864,0c6.685,0.836,9.471,8.078,12.535,13.928
		c3.064,5.571,3.9,11.699,10.585,4.178c4.457-4.457,5.014-11.142,10.307-14.206c3.621-2.229,6.407-1.95,10.585-2.229
		c4.457-0.278,11.699-2.786,16.435-1.114c5.014,1.95,7.242,12.256,9.471,17.27c2.229,4.457,4.178,10.307,6.964,13.928
		c8.078-5.014,13.092-19.22,17.548-27.298c3.622-6.407,6.964-5.571,13.649-5.571c3.064,0,8.914-1.114,11.42,0.836
		c4.735,3.064,7.242,14.763,8.914,20.056c3.063-3.621,8.635-19.22,13.927-19.499c4.735,6.963,5.015,16.992,7.243,25.069
		c1.114,4.178,1.949,8.635,3.063,12.535c1.95,6.963,3.621,16.713,8.636,22.005c2.785-2.229,3.621-10.585,5.014-13.928
		c3.063-8.078,7.242-15.32,10.863-23.12c2.785-6.407,4.735-12.813,6.406-19.499c1.672-5.85,5.85-4.735,11.143-2.786
		c3.343,1.393,5.571,2.229,9.192,2.229c2.507,0,6.685-1.393,8.635-0.557c4.457,1.95,8.635,11.978,9.471,16.435
		c2.229,9.192,0.836,18.663,2.507,27.577c8.356-10.585,11.978-23.398,13.371-36.49c0.557-5.571-0.279-7.521,3.621-11.142
		c3.899-3.343,3.621-4.735,3.343-10.307c0-5.85-1.394-5.85-7.8-6.128c-35.654-1.393-71.588,0.278-107.242-0.836
		C101.284-3.265,59.223,0.914,18.276-2.708C11.869-3.265-3.173-4.657-5.68,3.42c-0.557,1.671,0,5.571,0.557,7.243
		c0.835,3.621,3.9,4.178,4.457,6.685"/>
	<g>
		<path fill="#E0C44F" d="M1.563,18.291c3.019-0.032,6.034-0.142,9.053-0.097c4.435,0.066,6.979,2.592,9.239,6.093
			c2.64,4.088,4.299,8.748,6.744,12.942c4.792,8.221,12.741-4.627,14.771-8.595c3.419-6.685,7.933-8.272,15.068-8.671
			c5.316-0.297,13.227-4.081,17.662,0.055c3.62,3.375,4.695,9.656,6.425,14.118c1.99,5.13,4.308,10.666,7.487,15.168
			c0.447,0.633,1.333,1.024,2.052,0.539c4.994-3.373,8.176-8.456,11.007-13.663c2.95-5.425,5.191-14.51,10.48-18.097
			c2.338-1.585,6.301-0.924,8.954-0.905c3.44,0.024,7.514-1.22,10.664,0.631c5.344,3.141,6.561,13.718,8.225,19.159
			c0.295,0.966,1.776,1.605,2.507,0.662c2.034-2.628,3.409-5.716,4.937-8.651c1.678-3.227,4.287-9.793,8.328-10.462
			c-0.564-0.229-1.129-0.459-1.693-0.689c3.006,4.789,4.139,10.169,5.179,15.65c1.157,6.097,2.654,12.098,4.077,18.137
			c2.069,8.785,3.833,19.125,9.921,26.127c0.537,0.618,1.573,0.547,2.121,0c2.502-2.499,3.206-6.284,4.007-9.597
			c1.388-5.746,3.861-11.004,6.464-16.298c2.774-5.642,5.664-11.175,7.896-17.061c1.099-2.896,1.996-5.866,2.862-8.838
			c1.191-4.087,1.421-9.517,6.999-8.361c5.091,1.055,9.094,3.764,14.495,3.417c2.381-0.153,5.215-1.5,7.496-0.262
			c2.403,1.305,3.873,4.583,5.068,6.9c5.73,11.107,3.47,23.872,5.437,35.79c0.238,1.446,2.06,1.25,2.741,0.358
			c7.979-10.438,11.728-22.716,13.391-35.613c0.341-2.644,0.236-5.37,0.795-7.979c0.561-2.622,3.34-4.189,4.915-6.161
			c2.395-2.997,1.601-7.598,1.344-11.11c-0.183-2.491-1.345-4.154-3.694-4.937c-1.698-0.565-3.754-0.446-5.51-0.524
			c-4.623-0.205-9.252-0.304-13.878-0.4c-16.56-0.343-33.125-0.154-49.686-0.065c-32.646,0.174-65.228-0.848-97.875-0.119
			C71.85-2.759,55.662-2.474,39.477-2.964c-11.405-0.345-23.659-2.96-35.04-1.364C0.236-3.739-5.074-2.296-6.782,2.131
			c-0.997,2.582-0.576,5.276-0.06,7.93c0.675,3.478,3.614,4.666,4.73,7.686c0.665,1.798,3.565,1.021,2.893-0.798
			c-0.558-1.511-1.349-2.47-2.51-3.586c-2.365-2.273-3.104-6.396-2.504-9.543c1.052-5.513,10.688-5.479,14.759-5.478
			c13.502,0,27.038,1.776,40.574,1.937C83.474,0.66,115.794-1,148.177-0.211c33.102,0.806,66.218-0.539,99.315,0.601
			c1.708,0.059,6.563-0.479,7.788,1.151c1.146,1.525,0.608,5.469,0.636,7.301c0.07,4.653-5.597,6.846-6.581,11.451
			c-1.2,5.612-1.088,11.512-2.322,17.185c-1.602,7.363-4.449,14.35-8.453,20.726c-0.889,1.415-1.903,2.744-2.916,4.07
			c0.914,0.12,1.827,0.239,2.741,0.358c-2.212-13.405-0.048-26.498-6.979-38.805c-1.902-3.378-4.482-6.483-8.571-6.563
			c-2.757-0.054-5.418,0.855-8.215,0.744c-3.732-0.149-7.276-2.325-10.826-3.316c-3.688-1.03-6.796-0.025-8.629,3.364
			c-1.396,2.582-1.762,6.064-2.581,8.875c-1.354,4.645-3.016,9.232-5.078,13.608c-3.166,6.718-6.71,13.229-9.558,20.096
			c-1.864,4.494-1.788,11.476-5.301,14.984c0.707,0,1.414,0,2.121,0c-6.674-7.676-8.189-20.629-10.414-30.249
			c-2.21-9.562-2.986-20.604-8.294-29.058c-0.388-0.618-1.003-0.804-1.693-0.689c-7.908,1.307-10.407,14.482-14.589,19.884
			c0.836,0.221,1.671,0.441,2.507,0.662c-1.869-6.114-3.04-13.602-7.218-18.679c-4.493-5.462-12.19-3.308-18.436-3.349
			c-7.389-0.049-10.236,4.471-13.264,10.635c-3.831,7.798-7.329,17.417-14.818,22.474c0.684,0.18,1.368,0.359,2.052,0.539
			c-3.424-4.849-5.9-10.899-7.94-16.455c-1.543-4.203-2.777-9.189-5.769-12.659c-2.957-3.429-6.941-3.741-11.262-3.15
			c-5.711,0.781-12.066,0.866-17.583,2.47c-4.558,1.325-7.199,5.152-9.269,9.125c-1.559,2.991-3.138,5.496-5.48,7.97
			c-3.557,3.757-5.209-1.466-6.492-4.081c-2.328-4.747-4.602-9.921-8.724-13.392c-4.423-3.722-11.244-2.383-16.52-2.327
			C-0.371,15.312-0.373,18.312,1.563,18.291L1.563,18.291z"/>
	</g>
</g>
<g>
	<path fill="#D19956" d="M244.51,175.033l-41.285,1.518c-3.097-0.695-5.923-1.739-9.461-2.581
		c-7.521-1.672-12.257,0.278-19.499,1.949c-5.292,1.393-8.078,2.229-10.028-3.063c-3.621-10.028-6.963-18.941-13.648-27.299
		c-2.229-2.785-5.85-6.406-8.914-5.292c-1.949,0.836-3.899,5.014-5.292,6.406c-3.064,3.064-6.407,6.129-10.028,8.357
		c-4.736,3.342-21.727,13.37-28.134,8.913c-3.343-2.229-2.507-11.421-6.407-13.37c-5.292-2.786-13.371,11.142-18.941,9.749
		c-3.064-0.836-2.229-6.406-5.85-7.242c-4.457-1.114-7.521,3.621-11.421,4.457c-6.128,0.835-4.457-8.078-5.571-13.371
		c-1.393-6.128-2.229-16.713-6.686-21.17c-6.685,4.457-9.749,19.221-13.649,26.463c-3.899,6.964-7.521,13.928-10.863,21.17
		c-1.671,3.343-3.064,8.913-6.128,11.42c-0.899,0.771-2.117,1.281-3.511,1.634l-14.823,0.545c-0.145,0.188-0.279,0.389-0.419,0.583
		c-0.061,0.01-0.128,0.015-0.188,0.024l0.175-0.006c-4.426,6.165-6.303,15.73,0.711,21.126c3.064,2.507,8.078,1.359,11.978,1.359
		C19.44,206.755,32.253,207,44.788,207c35.376,0,71.031,0,106.407,0c11.142,0,22.284,0,33.704,0c13.092,0,26.463,0,39.833,0
		c10.028,0,21.728,1.427,31.755-0.523C256.487,196.17,260.944,173.084,244.51,175.033z"/>
	<g>
		<path fill="#E0C44F" d="M244.51,173.533c-12.415,0.456-24.829,0.913-37.244,1.369c-8.188,0.301-15.341-3.802-23.755-2.658
			c-4.3,0.584-14.725,5.895-17.474,1.053c-1.691-2.98-2.539-6.827-3.815-10.024c-1.223-3.064-2.61-6.054-4.13-8.981
			c-2.475-4.769-12.617-22.135-19.371-13.392c-4.094,5.3-8.069,9.333-13.637,13.189c-3.694,2.558-7.72,4.682-11.802,6.54
			c-3.43,1.562-11.887,5.354-14.901,1.326c-2.619-3.5-1.617-8.579-4.786-11.962c-4.939-5.273-13.63,5.479-17.108,7.83
			c-4.94,3.339-4.9-5.652-9.463-6.245c-2.59-0.337-4.469,0.393-6.676,1.702c-1.102,0.653-2.143,1.409-3.244,2.068
			c-4.013,2.401-4.566-1.229-4.873-3.738c-1.166-9.522-1.103-22.125-7.824-29.677c-0.409-0.46-1.306-0.615-1.818-0.235
			c-5.555,4.127-7.894,11.207-10.243,17.446c-3.597,9.554-8.812,18.221-13.245,27.401c-1.875,3.884-3.304,8.006-5.332,11.804
			c-2.055,3.849-5.036,3.848-8.708,3.983c-2.964,0.108-5.929,0.218-8.894,0.326c-0.816,0.03-3.967,0.877-2.404,0.674
			c-1.855,0.241-1.987,3.066,0,3c0.058-0.002,0.117-0.004,0.175-0.006c-0.432-0.752-0.863-1.505-1.295-2.257
			c-4.178,6.198-5.988,14.272-1.306,20.697c2.07,2.841,4.913,3.961,8.285,4.298c5.997,0.6,12.5-0.44,18.53-0.526
			c27.258-0.388,54.552,0.027,81.813,0.027c27.046,0,54.092,0,81.138,0c13.271,0,26.54,0,39.81,0c11.967,0,24.111,1.465,35.974-0.61
			c0.653-0.114,1.096-0.827,1.102-1.446C258.091,195.484,262.293,172.003,244.51,173.533c-1.912,0.165-1.929,3.166,0,3
			c15.108-1.301,10.564,20.709,10.478,29.977c0.367-0.482,0.734-0.964,1.102-1.446c-10.979,1.92-22.198,0.503-33.267,0.503
			c-12.017,0-24.034,0-36.051,0c-23.675,0-47.35,0-71.025,0c-24.28,0-48.561,0.023-72.841-0.002
			c-12.096-0.013-24.188-0.206-36.279,0.281c-5.679,0.229-10.833,1.027-14.111-4.781c-2.75-4.873-0.082-11.327,2.717-15.48
			c0.632-0.938-0.202-2.294-1.295-2.257c-0.058,0.002-0.117,0.004-0.175,0.006c0,1,0,2,0,3c0.655-0.085,1.082-0.21,1.483-0.768
			c-0.406,0.564-0.771,0.156,0.921,0.094c2.964-0.108,5.929-0.218,8.894-0.326c6.197-0.229,9.722-1.925,12.525-7.926
			c4.574-9.792,9.717-19.307,14.327-29.066c3.61-7.642,5.028-18.733,12.189-24.051c-0.606-0.079-1.212-0.157-1.818-0.235
			c6.67,7.495,5.664,20.675,7.298,29.975c0.424,2.418,2.235,5.19,5.017,5.055c5.271-0.257,11.41-8.818,14.486-1.034
			c3.208,8.116,10.901,1.019,14.828-2.42c1.684-1.475,3.427-3.032,5.566-3.797c3.101-1.108,3.95,4.311,4.438,6.281
			c0.878,3.544,1.769,6.51,5.319,7.979c7.151,2.958,17.882-3.705,23.744-7.131c3.874-2.265,7.524-4.868,10.896-7.827
			c1.89-1.658,3.675-3.379,5.116-5.439c1.017-1.453,2.355-4.348,4.653-4.02c2.254,0.323,4.493,3.284,5.88,4.941
			c4.627,5.532,7.745,12.3,10.396,18.941c1.568,3.928,2.426,10.244,6.551,12.418c3.216,1.696,8.526-0.676,11.626-1.452
			c3.483-0.872,6.85-1.63,10.463-1.69c4.333-0.073,8.61,1.652,12.733,2.789c2.403,0.663,4.82,0.321,7.293,0.23
			c4.76-0.175,9.52-0.35,14.28-0.524c7.213-0.266,14.427-0.53,21.641-0.796C246.438,176.462,246.445,173.462,244.51,173.533z"/>
	</g>
</g>
<g>
	<path fill="#7081E5" d="M19.763,205.435c-2.839,0.557-6.968,0.836-9.033,2.785c-3.355,3.064-4.388,10.864-4.645,15.6
		c-0.259,5.85-1.291,13.648,3.612,17.549c7.485,5.57,21.422,3.899,30.197,3.899c47.747,0.278,95.752,0,143.757-0.558
		c14.194,0,29.938,0,43.876-4.456c3.612-1.394,6.451-2.786,9.291-5.015c3.354-2.229,8-4.178,10.323-7.242
		c16.519-20.056-46.715-20.334-53.941-20.334c-17.034,0-34.067,0.278-51.102-0.836c-12.646-0.836-24.002-4.457-36.133-6.964
		c-22.196-4.457-44.908-0.557-66.587,3.621c-7.743,1.394-17.292,6.129-25.035,4.179"/>
	<g>
		<path fill="#254CD8" d="M19.379,204.042c-4.491,0.794-8.524,1.234-11.285,5.171c-2.798,3.988-3.15,9.907-3.453,14.606
			c-0.292,4.523-0.944,9.82,0.904,14.116c2,4.651,6.039,6.622,10.738,7.864c5.116,1.353,10.657,1.207,15.897,1.095
			c7.156-0.154,14.299-0.146,21.457-0.118c16.392,0.063,32.784,0.055,49.175,0.004c32.17-0.102,64.463,0.281,96.615-0.834
			c12.814-0.445,27.493-1.561,38.12-9.46c5.303-3.941,13.789-6.914,13.774-14.889c-0.018-10.115-18.594-12.231-25.426-13.252
			c-11.456-1.712-23.091-2.132-34.661-2.125c-15.073,0.009-30.145,0.158-45.205-0.604c-15.563-0.787-30.094-5.84-45.397-8.112
			c-14.219-2.11-28.702-0.831-42.838,1.264c-7.271,1.077-14.63,2.271-21.78,3.984c-6.999,1.677-13.946,4.964-21.287,3.519
			c-1.819-0.357-2.594,2.426-0.768,2.785c5.674,1.116,11.052-0.175,16.521-1.73c7.394-2.104,14.825-3.551,22.401-4.857
			c16.778-2.894,33.907-4.427,50.797-1.574c14.965,2.528,29.042,6.938,44.317,7.71c15.221,0.771,30.472,0.481,45.705,0.504
			c12.54,0.019,25.271,0.646,37.592,3.086c5.244,1.038,12.95,2.439,16.313,7.108c5.142,7.141-11.036,14.681-15.227,17.161
			c-9.491,5.617-22.223,6.131-32.951,6.596c-11.154,0.482-22.366,0.287-33.53,0.4c-24.31,0.248-48.619,0.407-72.93,0.459
			c-21.683,0.046-43.37,0.107-65.049,0.14c-4.547,0.007-9.064-0.388-13.407-1.786c-6.178-1.989-7.291-7.286-7.237-13.098
			c0.04-4.246,0.371-8.557,1.207-12.719c0.572-2.846,1.534-5.924,3.979-7.728c1.942-1.433,5.378-1.493,7.687-1.9
			C21.979,206.503,21.2,203.721,19.379,204.042L19.379,204.042z"/>
	</g>
</g>
</svg>
